<svg width="1920" height="1594" fill="none" xmlns="http://www.w3.org/2000/svg"><path d="M1116.51 1594H4761L1124.87 116.74a199.994 199.994 0 00-100.61-13.098L-1661 446.5l2700.19 1131.95a200.093 200.093 0 0077.32 15.55z" fill="#44B3CB"/><path opacity=".15" d="M1006.55 547c0 25.711-20.839 46.554-46.55 46.554S913.446 572.711 913.446 547c0-25.711 20.843-46.554 46.554-46.554 25.711 0 46.55 20.843 46.55 46.554zM960 594.554c26.263 0 47.55-21.291 47.55-47.554s-21.287-47.554-47.55-47.554c-26.263 0-47.554 21.291-47.554 47.554s21.291 47.554 47.554 47.554zM1030.08 547c0 38.705-31.375 70.081-70.08 70.081-38.704 0-70.081-31.376-70.081-70.081 0-38.704 31.377-70.081 70.081-70.081 38.705 0 70.08 31.377 70.08 70.081zM960 618.081c39.257 0 71.08-31.824 71.08-71.081 0-39.257-31.823-71.081-71.08-71.081S888.919 507.743 888.919 547c0 39.257 31.824 71.081 71.081 71.081zM1053.61 547c0 51.698-41.91 93.608-93.61 93.608-51.698 0-93.608-41.91-93.608-93.608 0-51.698 41.91-93.608 93.608-93.608 51.7 0 93.61 41.91 93.61 93.608zM960 641.608c52.25 0 94.61-42.358 94.61-94.608 0-52.25-42.36-94.608-94.61-94.608S865.392 494.75 865.392 547c0 52.25 42.358 94.608 94.608 94.608zM1077.13 547c0 64.692-52.44 117.134-117.13 117.134-64.692 0-117.134-52.442-117.134-117.134 0-64.692 52.442-117.134 117.134-117.134 64.69 0 117.13 52.442 117.13 117.134zM960 665.134c65.24 0 118.13-52.89 118.13-118.134S1025.24 428.866 960 428.866c-65.244 0-118.134 52.89-118.134 118.134S894.756 665.134 960 665.134zM1100.66 547c0 77.685-62.97 140.661-140.66 140.661-77.685 0-140.661-62.976-140.661-140.661S882.315 406.339 960 406.339c77.69 0 140.66 62.976 140.66 140.661zM960 688.661c78.24 0 141.66-63.424 141.66-141.661S1038.24 405.339 960 405.339c-78.237 0-141.661 63.424-141.661 141.661S881.763 688.661 960 688.661zM1124.19 547c0 90.679-73.51 164.188-164.19 164.188-90.679 0-164.188-73.509-164.188-164.188 0-90.679 73.509-164.188 164.188-164.188 90.68 0 164.19 73.509 164.19 164.188zM960 712.188c91.23 0 165.19-73.957 165.19-165.188S1051.23 381.812 960 381.812c-91.231 0-165.188 73.957-165.188 165.188S868.769 712.188 960 712.188zM1147.72 547c0 103.672-84.05 187.715-187.72 187.715-103.672 0-187.715-84.043-187.715-187.715S856.328 359.285 960 359.285c103.67 0 187.72 84.043 187.72 187.715zM960 735.715c104.22 0 188.72-84.491 188.72-188.715S1064.22 358.285 960 358.285c-104.224 0-188.715 84.491-188.715 188.715S855.776 735.715 960 735.715zM1171.24 547c0 116.666-94.57 211.242-211.24 211.242-116.666 0-211.242-94.576-211.242-211.242S843.334 335.758 960 335.758c116.67 0 211.24 94.576 211.24 211.242zM960 759.242c117.22 0 212.24-95.024 212.24-212.242 0-117.218-95.02-212.242-212.24-212.242-117.218 0-212.242 95.024-212.242 212.242 0 117.218 95.024 212.242 212.242 212.242zM1194.77 547c0 129.659-105.11 234.769-234.77 234.769-129.659 0-234.769-105.11-234.769-234.769S830.341 312.231 960 312.231c129.66 0 234.77 105.11 234.77 234.769zM960 782.769c130.21 0 235.77-105.557 235.77-235.769S1090.21 311.231 960 311.231c-130.212 0-235.769 105.557-235.769 235.769S829.788 782.769 960 782.769zM1241.82 547c0 155.646-126.17 281.823-281.82 281.823-155.646 0-281.823-126.177-281.823-281.823 0-155.646 126.177-281.823 281.823-281.823 155.65 0 281.82 126.177 281.82 281.823zM960 829.823c156.2 0 282.82-126.624 282.82-282.823 0-156.199-126.62-282.823-282.82-282.823-156.199 0-282.823 126.624-282.823 282.823 0 156.199 126.624 282.823 282.823 282.823zM1265.35 547c0 168.64-136.71 305.35-305.35 305.35-168.64 0-305.349-136.71-305.349-305.35 0-168.64 136.709-305.349 305.349-305.349S1265.35 378.36 1265.35 547zM960 853.35c169.19 0 306.35-137.158 306.35-306.35 0-169.192-137.16-306.349-306.35-306.349-169.192 0-306.349 137.157-306.349 306.349 0 169.192 137.157 306.35 306.349 306.35zM1288.88 547c0 181.633-147.25 328.876-328.88 328.876-181.633 0-328.876-147.243-328.876-328.876 0-181.633 147.243-328.876 328.876-328.876 181.63 0 328.88 147.243 328.88 328.876zM960 876.876c182.19 0 329.88-147.69 329.88-329.876 0-182.186-147.69-329.876-329.88-329.876-182.186 0-329.876 147.69-329.876 329.876 0 182.186 147.69 329.876 329.876 329.876zM1312.4 547c0 194.627-157.77 352.403-352.4 352.403-194.627 0-352.403-157.776-352.403-352.403S765.373 194.597 960 194.597c194.63 0 352.4 157.776 352.4 352.403zM960 900.403c195.18 0 353.4-158.224 353.4-353.403 0-195.179-158.22-353.403-353.4-353.403-195.179 0-353.403 158.224-353.403 353.403 0 195.179 158.224 353.403 353.403 353.403zM1335.93 547c0 207.621-168.31 375.93-375.93 375.93S584.07 754.621 584.07 547c0-207.62 168.31-375.93 375.93-375.93S1335.93 339.38 1335.93 547zM960 923.93c208.17 0 376.93-168.757 376.93-376.93S1168.17 170.07 960 170.07c-208.173 0-376.93 168.757-376.93 376.93S751.827 923.93 960 923.93zM1359.46 547c0 220.614-178.85 399.457-399.46 399.457-220.614 0-399.457-178.843-399.457-399.457S739.386 147.543 960 147.543c220.61 0 399.46 178.843 399.46 399.457zM960 947.457c221.17 0 400.46-179.291 400.46-400.457S1181.17 146.543 960 146.543c-221.166 0-400.457 179.291-400.457 400.457S738.834 947.457 960 947.457zM1382.98 547c0 233.608-189.37 422.984-422.98 422.984-233.608 0-422.984-189.376-422.984-422.984 0-233.608 189.376-422.984 422.984-422.984 233.61 0 422.98 189.376 422.98 422.984zM960 970.984c234.16 0 423.98-189.824 423.98-423.984 0-234.16-189.82-423.984-423.98-423.984-234.16 0-423.984 189.824-423.984 423.984 0 234.16 189.824 423.984 423.984 423.984zM1430.04 547c0 259.595-210.45 470.04-470.04 470.04-259.595 0-470.038-210.445-470.038-470.04S700.405 76.962 960 76.962c259.59 0 470.04 210.443 470.04 470.038zM960 1018.04c260.15 0 471.04-210.893 471.04-471.04 0-260.147-210.89-471.038-471.04-471.038-260.147 0-471.038 210.891-471.038 471.038 0 260.147 210.891 471.04 471.038 471.04zM1453.56 547c0 272.588-220.97 493.56-493.56 493.56-272.588 0-493.565-220.972-493.565-493.56 0-272.588 220.977-493.565 493.565-493.565 272.59 0 493.56 220.977 493.56 493.565zM960 1041.56c273.14 0 494.56-221.42 494.56-494.56S1233.14 52.435 960 52.435 465.435 273.86 465.435 547 686.86 1041.56 960 1041.56zM1477.09 547c0 285.582-231.51 517.09-517.09 517.09-285.582 0-517.091-231.508-517.091-517.09S674.418 29.909 960 29.909c285.58 0 517.09 231.509 517.09 517.091zM960 1065.09c286.13 0 518.09-231.956 518.09-518.09S1246.13 28.909 960 28.909c-286.134 0-518.091 231.957-518.091 518.091S673.866 1065.09 960 1065.09zM1506.5 547c0 301.824-244.68 546.5-546.5 546.5-301.824 0-546.5-244.676-546.5-546.5S658.176.5 960 .5c301.82 0 546.5 244.676 546.5 546.5z" stroke="#E6EAF7"/></svg>