<svg width="120" height="40" fill="none" xmlns="http://www.w3.org/2000/svg"><path d="M48.364 30.3c-.483 0-.87-.137-1.161-.411-.274-.29-.412-.668-.412-1.134v-13.03h-4.404c-.968 0-1.452-.426-1.452-1.279 0-.852.484-1.279 1.452-1.279h11.931c.968 0 1.452.427 1.452 1.28 0 .852-.484 1.278-1.452 1.278h-4.405v13.03c0 .466-.145.845-.435 1.134-.275.274-.646.41-1.114.41zm10.486.023c-.435 0-.798-.12-1.089-.362-.274-.257-.411-.619-.411-1.085v-9.314c0-.467.137-.82.411-1.062.29-.241.654-.362 1.09-.362.435 0 .798.12 1.089.362.29.241.435.595.435 1.062v9.314c0 .466-.145.828-.435 1.085-.29.242-.654.362-1.09.362zm0-14.333c-.548 0-.984-.144-1.306-.434-.323-.305-.484-.7-.484-1.182 0-.483.16-.869.484-1.158.322-.29.758-.435 1.306-.435.533 0 .96.145 1.283.435.339.29.508.675.508 1.158 0 .482-.161.877-.484 1.182-.322.29-.758.434-1.307.434zm18.706 2.1c1.29 0 2.275.386 2.952 1.158.694.756 1.04 1.987 1.04 3.692v5.936c0 .466-.144.828-.435 1.085-.274.242-.637.362-1.089.362-.435 0-.798-.12-1.089-.362-.274-.257-.411-.619-.411-1.085V22.94c0-.885-.162-1.512-.484-1.882-.307-.386-.783-.58-1.428-.58-.79 0-1.42.274-1.888.82-.468.532-.702 1.264-.702 2.197v5.38c0 .467-.145.829-.435 1.086-.275.242-.63.362-1.065.362-.436 0-.799-.12-1.09-.362-.29-.257-.435-.619-.435-1.085V22.94c0-.885-.161-1.512-.484-1.882-.306-.386-.782-.58-1.428-.58-.79 0-1.42.274-1.887.82-.452.532-.678 1.264-.678 2.197v5.38c0 .467-.145.829-.436 1.086-.29.242-.653.362-1.089.362-.435 0-.798-.12-1.089-.362-.274-.257-.411-.619-.411-1.085v-9.338c0-.45.145-.797.435-1.038.29-.241.654-.362 1.09-.362.419 0 .758.12 1.016.362.274.225.411.555.411.99v.578a3.812 3.812 0 011.477-1.472c.629-.337 1.347-.506 2.153-.506 1.775 0 2.961.74 3.558 2.22a3.993 3.993 0 011.573-1.617c.694-.402 1.476-.603 2.348-.603zm16.434 8.855c.274 0 .492.105.653.314.177.209.266.49.266.844 0 .5-.298.917-.895 1.255a8.495 8.495 0 01-1.864.748 8.034 8.034 0 01-1.984.266c-1.904 0-3.413-.547-4.526-1.641-1.113-1.094-1.67-2.59-1.67-4.488 0-1.207.242-2.276.726-3.21a5.293 5.293 0 012.033-2.171c.887-.515 1.888-.772 3.001-.772 1.065 0 1.993.233 2.783.7a4.75 4.75 0 011.84 1.978c.435.853.653 1.858.653 3.016 0 .692-.307 1.038-.92 1.038h-7.14c.098 1.11.412 1.93.945 2.461.532.515 1.307.772 2.323.772.516 0 .968-.064 1.355-.193.404-.128.855-.305 1.356-.53.484-.258.838-.387 1.064-.387zm-4.187-6.732c-.823 0-1.485.258-1.985.772-.484.515-.774 1.255-.871 2.22h5.47c-.033-.981-.275-1.721-.727-2.22-.451-.514-1.08-.772-1.887-.772zm11.961 10.159c-1.759 0-3.178-.346-4.26-1.038-.516-.306-.774-.74-.774-1.303 0-.322.089-.58.266-.772a.826.826 0 01.654-.314c.274 0 .653.129 1.137.386.517.242.984.427 1.404.555.436.129.984.193 1.646.193.677 0 1.202-.112 1.573-.338.387-.225.581-.538.581-.94 0-.274-.081-.491-.242-.652-.146-.16-.42-.306-.823-.434-.388-.145-.984-.306-1.791-.483-1.436-.29-2.469-.7-3.098-1.23-.613-.531-.92-1.263-.92-2.196 0-.708.21-1.344.63-1.907.42-.579.992-1.021 1.718-1.327.742-.321 1.581-.482 2.517-.482.677 0 1.331.088 1.96.265a5.727 5.727 0 011.694.724c.517.322.775.748.775 1.279 0 .322-.089.595-.267.82a.824.824 0 01-.653.314 1.55 1.55 0 01-.532-.097c-.162-.08-.371-.193-.63-.337a8.743 8.743 0 00-1.21-.531c-.339-.129-.758-.193-1.258-.193-.597 0-1.073.12-1.428.362a1.15 1.15 0 00-.508.989c0 .402.177.708.532.917.355.209 1.041.418 2.057.627 1.081.226 1.928.483 2.541.772.613.29 1.049.652 1.307 1.086.275.435.412.99.412 1.665 0 1.094-.46 1.97-1.38 2.63-.903.66-2.113.99-3.63.99zm15.55-11.365c.129-.29.298-.499.508-.628a1.32 1.32 0 01.726-.217c.371 0 .702.129.992.386.307.242.46.547.46.917 0 .177-.048.362-.145.555l-6.607 13.802c-.274.547-.702.82-1.283.82a1.51 1.51 0 01-.992-.361 1.074 1.074 0 01-.411-.87c0-.176.048-.377.145-.602l1.645-3.45-4.501-9.339a1.218 1.218 0 01-.121-.555c0-.37.153-.684.46-.941a1.703 1.703 0 011.089-.386c.274 0 .524.072.75.217.226.129.403.338.533.628l3.388 7.456 3.364-7.432zM11.696 0H23.39v3.81H11.696V0zm2.689 18.438c0 1.187.915 1.95 3.76 2.687 2.844.738 5.89 1.95 5.89 5.5 0 2.563-1.943 3.975-4.387 4.438v2.687H15.89v-2.712c-2.406-.513-4.46-2.05-4.611-4.788h2.756c.138 1.475 1.153 2.625 3.735 2.625 2.77 0 3.383-1.375 3.383-2.237 0-1.163-.626-2.263-3.76-3.013-3.495-.837-5.889-2.275-5.889-5.162 0-2.413 1.955-3.988 4.386-4.513v-2.7h3.76v2.738c2.618.637 3.934 2.612 4.022 4.762H20.9c-.075-1.562-.902-2.625-3.132-2.625-2.118 0-3.384.95-3.384 2.313z" fill="#5C59EB"/><path fill-rule="evenodd" clip-rule="evenodd" d="M34.015 9.467l-2.768 2.704c2.398 2.934 3.84 6.648 3.84 10.686C35.087 32.324 27.25 40 17.543 40 7.837 40 0 32.324 0 22.857 0 13.391 7.856 5.714 17.544 5.714c4.132 0 7.933 1.41 10.954 3.772l2.768-2.705c.995.8 1.91 1.714 2.749 2.686zM3.899 22.857c0 7.372 6.1 13.334 13.645 13.334 7.543 0 13.644-5.962 13.644-13.334 0-7.371-6.1-13.333-13.644-13.333-7.544 0-13.645 5.962-13.645 13.333z" fill="#5C59EB"/></svg>