<svg width="114" height="38" fill="none" xmlns="http://www.w3.org/2000/svg"><path d="M45.946 28.784c-.46 0-.827-.13-1.103-.39-.26-.274-.391-.634-.391-1.077V14.94h-4.184c-.92 0-1.38-.405-1.38-1.215s.46-1.215 1.38-1.215h11.334c.92 0 1.38.405 1.38 1.215s-.46 1.215-1.38 1.215h-4.184v12.378c0 .443-.138.802-.414 1.078-.26.26-.613.39-1.058.39zm9.962.023c-.414 0-.759-.114-1.035-.344-.26-.244-.39-.588-.39-1.031v-8.848c0-.444.13-.78.39-1.01.276-.228.621-.343 1.035-.343.414 0 .759.115 1.035.344.275.23.413.565.413 1.009v8.848c0 .443-.138.787-.413 1.031-.276.23-.621.344-1.035.344zm0-13.616c-.521 0-.935-.138-1.242-.413-.306-.29-.46-.665-.46-1.123 0-.458.154-.825.46-1.1.307-.275.72-.413 1.242-.413.506 0 .912.138 1.218.413.322.275.483.642.483 1.1 0 .459-.153.833-.46 1.123-.306.275-.72.413-1.241.413zm17.77 1.994c1.226 0 2.161.367 2.805 1.1.659.719.988 1.888.988 3.508v5.639c0 .443-.138.787-.413 1.031-.261.23-.606.344-1.035.344-.414 0-.759-.114-1.035-.344-.26-.244-.39-.588-.39-1.031v-5.64c0-.84-.154-1.436-.46-1.787-.291-.367-.744-.55-1.357-.55-.75 0-1.349.26-1.793.779-.445.504-.667 1.2-.667 2.086v5.112c0 .443-.138.787-.414 1.031-.26.23-.597.344-1.011.344-.414 0-.759-.114-1.035-.344-.276-.244-.414-.588-.414-1.031v-5.64c0-.84-.153-1.436-.46-1.787-.29-.367-.743-.55-1.356-.55-.751 0-1.349.26-1.793.779-.43.504-.644 1.2-.644 2.086v5.112c0 .443-.138.787-.414 1.031-.276.23-.62.344-1.035.344-.413 0-.758-.114-1.034-.344-.26-.244-.39-.588-.39-1.031V18.56c0-.428.137-.757.413-.986.276-.23.62-.344 1.035-.344.398 0 .72.115.965.344.26.214.391.527.391.94v.55a3.62 3.62 0 011.402-1.398c.598-.321 1.28-.482 2.047-.482 1.686 0 2.812.703 3.38 2.11a3.793 3.793 0 011.494-1.537c.659-.382 1.402-.573 2.23-.573zm15.612 8.413c.26 0 .467.1.62.298.17.199.254.466.254.802 0 .474-.284.871-.851 1.192a8.072 8.072 0 01-1.77.71 7.63 7.63 0 01-1.886.253c-1.808 0-3.241-.52-4.299-1.559-1.058-1.039-1.586-2.46-1.586-4.263 0-1.147.23-2.163.69-3.05a5.03 5.03 0 011.93-2.062c.844-.49 1.794-.734 2.852-.734 1.011 0 1.892.222 2.644.665a4.513 4.513 0 011.747 1.88c.414.81.62 1.765.62 2.865 0 .657-.29.986-.873.986H82.6c.092 1.054.39 1.834.896 2.338.506.489 1.242.733 2.207.733.49 0 .92-.06 1.288-.183.383-.122.812-.29 1.287-.504.46-.245.797-.367 1.012-.367zm-3.978-6.396c-.781 0-1.41.245-1.885.734-.46.489-.736 1.192-.828 2.109h5.197c-.031-.932-.261-1.635-.69-2.109-.43-.489-1.027-.734-1.793-.734zm11.364 9.651c-1.67 0-3.02-.329-4.047-.986-.49-.29-.735-.703-.735-1.238 0-.305.084-.55.253-.733a.784.784 0 01.62-.298c.26 0 .621.122 1.08.367.491.229.936.405 1.334.527.414.122.935.183 1.564.183.644 0 1.142-.107 1.494-.32.368-.215.552-.512.552-.895 0-.26-.077-.466-.23-.619-.138-.152-.398-.29-.782-.412-.367-.138-.935-.29-1.7-.459-1.365-.275-2.346-.664-2.944-1.169-.582-.504-.874-1.2-.874-2.086 0-.672.2-1.276.598-1.81.399-.55.943-.971 1.633-1.261.705-.306 1.502-.459 2.39-.459.644 0 1.265.084 1.863.252a5.433 5.433 0 011.609.688c.491.306.736.71.736 1.215 0 .306-.084.565-.253.78a.783.783 0 01-.621.297c-.168 0-.337-.03-.505-.091a14.583 14.583 0 01-.598-.321 8.308 8.308 0 00-1.15-.505c-.322-.122-.72-.183-1.195-.183-.567 0-1.02.115-1.357.344-.322.23-.483.542-.483.94 0 .382.17.672.506.87.338.2.989.398 1.955.597 1.026.214 1.831.458 2.414.733.582.275.996.62 1.241 1.032.261.413.391.94.391 1.582 0 1.039-.437 1.872-1.311 2.498-.858.627-2.007.94-3.448.94zm14.772-10.797c.123-.275.284-.473.483-.596.214-.137.444-.206.69-.206.352 0 .666.122.942.367.291.229.437.52.437.87 0 .169-.046.345-.138.528l-6.277 13.112c-.26.52-.666.78-1.218.78-.353 0-.667-.115-.943-.344a1.022 1.022 0 01-.391-.826c0-.168.046-.359.138-.573l1.564-3.278-4.277-8.87a1.17 1.17 0 01-.115-.528c0-.352.146-.65.437-.894a1.619 1.619 0 011.035-.367c.26 0 .498.069.713.206.214.123.383.321.505.596l3.219 7.084 3.196-7.06zM11.11 0h11.112v3.619H11.11V0zm2.556 17.516c0 1.128.87 1.852 3.572 2.553 2.702.7 5.595 1.852 5.595 5.225 0 2.434-1.846 3.776-4.167 4.215v2.554h-3.571v-2.577c-2.286-.487-4.238-1.948-4.381-4.548h2.619c.13 1.4 1.095 2.493 3.547 2.493 2.631 0 3.215-1.306 3.215-2.125 0-1.105-.596-2.15-3.572-2.862-3.321-.796-5.595-2.161-5.595-4.904 0-2.292 1.857-3.789 4.167-4.287v-2.565h3.571v2.6c2.488.606 3.738 2.482 3.821 4.525h-2.63c-.072-1.485-.858-2.494-2.977-2.494-2.011 0-3.214.902-3.214 2.197z" fill="#fff"/><path fill-rule="evenodd" clip-rule="evenodd" d="M32.314 8.993l-2.63 2.57c2.278 2.787 3.649 6.315 3.649 10.151C33.333 30.708 25.888 38 16.666 38 7.444 38 0 30.708 0 21.714 0 12.721 7.463 5.43 16.666 5.43a16.84 16.84 0 0110.407 3.582l2.63-2.57a20.23 20.23 0 012.611 2.552zM3.704 21.714c0 7.003 5.796 12.667 12.962 12.667 7.167 0 12.963-5.664 12.963-12.667S23.833 9.048 16.666 9.048C9.5 9.048 3.704 14.71 3.704 21.714z" fill="#fff"/></svg>