<svg width="673" height="673" fill="none" xmlns="http://www.w3.org/2000/svg"><path d="M307.172 1.28a336.5 336.5 0 10317.765 508.53l-72.109-43.327a252.37 252.37 0 01-214.126 122.382 252.374 252.374 0 01-24.198-503.78L307.172 1.28z" fill="#5C59EB"/><path d="M345.817 351.272c8.435-4.87 11.324-15.655 6.455-24.089-4.87-8.435-15.655-11.324-24.089-6.455m22.043 38.18c12.651-7.305 16.986-23.482 9.682-36.134-7.305-12.651-23.482-16.986-36.134-9.682m30.86 53.452c16.869-9.74 22.649-31.31 12.91-48.178-9.74-16.869-31.31-22.649-48.178-12.91m39.677 68.724c21.086-12.174 28.311-39.137 16.137-60.223s-39.137-28.311-60.223-16.137m48.495 83.996c25.303-14.609 33.972-46.964 19.364-72.268-14.609-25.303-46.964-33.972-72.268-19.364m57.312 99.267c29.521-17.043 39.635-54.791 22.591-84.311-17.043-29.521-54.791-39.635-84.311-22.591m66.129 114.538c33.737-19.478 45.297-62.618 25.818-96.356-19.478-33.737-62.618-45.297-96.356-25.818m74.946 129.81c37.955-21.913 50.96-70.446 29.046-108.4-21.913-37.955-70.446-50.96-108.4-29.046m83.763 145.082c42.172-24.348 56.621-78.273 32.273-120.445s-78.273-56.621-120.445-32.273m96.989 167.99c50.607-29.218 67.946-93.928 38.728-144.534-29.218-50.607-93.928-67.946-144.534-38.728m110.215 190.898c54.823-31.652 73.607-101.755 41.955-156.579-31.652-54.823-101.755-73.607-156.579-41.955m119.032 206.17c59.041-34.087 79.27-109.583 45.183-168.623-34.087-59.041-109.583-79.27-168.623-45.183m127.849 221.442c63.258-36.522 84.932-117.41 48.41-180.668-36.522-63.258-117.41-84.932-180.668-48.41m136.667 236.714c67.475-38.957 90.594-125.237 51.637-192.713-38.957-67.475-125.237-90.594-192.713-51.637m145.484 251.986c71.693-41.392 96.256-133.065 54.865-204.757-41.392-71.693-133.065-96.256-204.757-54.865m154.301 267.258c75.91-43.827 101.918-140.892 58.092-216.802-43.827-75.91-140.892-101.918-216.802-58.092m167.527 290.165c84.344-48.696 113.243-156.546 64.546-240.89-48.696-84.344-156.546-113.243-240.89-64.546m180.753 313.072c88.561-51.131 118.904-164.373 67.773-252.935-51.13-88.561-164.373-118.904-252.935-67.773m189.57 328.344c92.779-53.565 124.567-172.201 71.001-264.979-53.565-92.779-172.201-124.567-264.979-71.001M439.5 513.535c98.05-56.609 131.644-181.985 75.035-280.035-56.609-98.05-181.985-131.644-280.035-75.035" stroke="#DCE0EE" stroke-width="1.331"/></svg>